<?xml version="1.0" encoding="utf-8"?>
<!-- Generator: Adobe Illustrator 25.4.1, SVG Export Plug-In . SVG Version: 6.00 Build 0)  -->
<svg version="1.1" id="Layer_1" xmlns="http://www.w3.org/2000/svg" xmlns:xlink="http://www.w3.org/1999/xlink" x="0px" y="0px"
	 viewBox="0 0 198 135" style="enable-background:new 0 0 198 135;" xml:space="preserve">
<style type="text/css">
	.st0{fill:#B08D57;}
	.st1{fill:#FFFFFF;}
	.st2{fill-rule:evenodd;clip-rule:evenodd;fill:#A3724F;}
</style>
<path class="st0" d="M198,37.4c0,5.6-4.7,10.2-10.2,10.2c-5.5,0-10.2-4.7-10.2-10.2c0-5.6,4.7-10.2,10.2-10.2S198,31.6,198,37.4z
	 M10.2,26.3C4.7,26.3,0,31,0,36.5s4.7,10.2,10.2,10.2c5.5,0,10.2-4.7,10.2-10.2C20.4,31,15.7,26.3,10.2,26.3z M98.3,0
	c-5.5,0-10.2,4.7-10.2,10.2c0,5.6,4.7,10.2,10.2,10.2c5.5,0,10.2-4.7,10.2-10.2C108.5,4.7,104.1,0,98.3,0z M34.7,121.6l3.8,13.4H156
	l4.7-13.4H34.7z M178.2,45.9c-9.3,8.5-24.8,19.6-40.2,19.6c-18.4,0-31.2-28.3-36.7-42.7c-0.9,0.3-2,0.3-2.9,0.3
	c-0.9,0-1.7,0-2.6-0.3c-5.2,14.3-19,42.7-39.1,42.7c-16.6,0-30.3-10.8-38.2-19c-1.5,1.2-2.9,1.8-4.7,2.3l18.1,62.5h132.4l19.2-61.9
	C181.4,48.8,179.6,47.6,178.2,45.9L178.2,45.9z"/>
<path class="st1" d="M96.8,120c-5.3,0-10-0.9-14.2-2.7c-4.1-1.8-7.4-4.4-9.8-7.6c-2.4-3.2-3.6-7-3.7-11.2h15.5
	c0.1,1.8,0.7,3.3,1.7,4.7c1.1,1.3,2.5,2.4,4.3,3.1c1.8,0.7,3.8,1.1,6.1,1.1c2.3,0,4.4-0.4,6.2-1.2c1.8-0.8,3.2-2,4.2-3.4
	c1-1.5,1.5-3.2,1.5-5.1c0-1.9-0.5-3.7-1.6-5.1c-1.1-1.5-2.6-2.7-4.6-3.6c-2-0.9-4.4-1.3-7.1-1.3h-6.8V76.3h6.8
	c2.3,0,4.4-0.4,6.1-1.2c1.8-0.8,3.2-1.9,4.2-3.3c1-1.4,1.5-3.1,1.5-5c0-1.8-0.4-3.4-1.3-4.8c-0.9-1.4-2.1-2.5-3.6-3.3
	c-1.5-0.8-3.3-1.2-5.4-1.2c-2.1,0-4,0.4-5.7,1.1c-1.7,0.7-3.1,1.8-4.2,3.2s-1.6,3-1.7,4.8H70.7c0.1-4.2,1.3-7.9,3.6-11.1
	c2.3-3.2,5.4-5.7,9.4-7.5c4-1.8,8.4-2.7,13.4-2.7c5,0,9.4,0.9,13.2,2.7c3.8,1.8,6.7,4.3,8.8,7.4c2.1,3.1,3.1,6.5,3.1,10.4
	c0,4.1-1.2,7.5-3.8,10.2c-2.5,2.7-5.8,4.5-9.9,5.2v0.6c5.4,0.7,9.4,2.5,12.2,5.6c2.8,3,4.2,6.8,4.2,11.3c0,4.1-1.2,7.8-3.6,11
	c-2.4,3.2-5.7,5.8-9.9,7.6C107.1,119.1,102.3,120,96.8,120z"/>
<path class="st2" d="M80.6,121.8L80.6,121.8c-4.8-2.2-8.8-5.2-11.8-9.2l0,0c-3-4.1-4.5-8.9-4.6-14.1c0-1.3,0.5-2.6,1.4-3.6
	c0.9-1,2.2-1.5,3.6-1.5h15.5c2.7,0,4.9,2.1,5,4.7c0,0.8,0.3,1.3,0.6,1.8c0.5,0.6,1.2,1.1,2.3,1.6c1.1,0.5,2.5,0.7,4.2,0.7
	c1.8,0,3.1-0.3,4.1-0.8c1.1-0.5,1.8-1.1,2.2-1.8c0.4-0.6,0.6-1.3,0.6-2.2c0-0.9-0.2-1.6-0.7-2.2c0,0,0,0-0.1-0.1
	c-0.4-0.6-1.2-1.3-2.5-1.8l0,0c-1.2-0.5-2.9-0.9-5.1-0.9h-6.8c-2.8,0-5-2.2-5-5V76.3c0-2.8,2.2-5,5-5h6.8c1.7,0,3.1-0.3,4.1-0.8l0,0
	c1.1-0.5,1.7-1,2.1-1.6c0.4-0.5,0.6-1.2,0.6-2.2c0-1-0.2-1.6-0.5-2.1c0,0,0,0,0-0.1c0,0,0,0,0,0c-0.3-0.5-0.8-1-1.6-1.4l0,0
	c-0.7-0.4-1.7-0.6-3.1-0.6c-1.5,0-2.7,0.3-3.7,0.7c0,0,0,0-0.1,0c-1,0.4-1.7,1-2.1,1.6c-0.4,0.5-0.6,1.1-0.7,2
	c-0.1,2.7-2.3,4.8-5,4.8H70.7c-1.3,0-2.6-0.5-3.6-1.5c-0.9-1-1.5-2.2-1.4-3.6c0.1-5.2,1.6-9.9,4.5-13.9c2.9-4,6.7-7,11.3-9.1
	c4.7-2.2,9.9-3.2,15.5-3.2c5.6,0,10.8,1,15.4,3.2c4.5,2.2,8.1,5.2,10.7,9.1c2.7,3.9,4,8.4,4,13.2c0,5.2-1.6,9.9-5.1,13.6
	c-0.4,0.5-0.9,0.9-1.4,1.4c1.4,0.9,2.6,1.9,3.7,3.1c3.8,4,5.6,9,5.5,14.7c0,5.2-1.5,9.9-4.6,14c-3,4-7,7-11.9,9.2
	c-5,2.2-10.5,3.2-16.5,3.2C90.9,125,85.5,124,80.6,121.8z M121.2,109.6c2.4-3.2,3.6-6.9,3.6-11c0-4.5-1.4-8.3-4.2-11.3
	c-1.3-1.4-2.8-2.5-4.6-3.4c-2.1-1-4.6-1.8-7.5-2.1c0,0-0.1,0-0.1,0v-0.6c0,0,0,0,0.1,0c2.7-0.5,5.1-1.4,7.1-2.8
	c1-0.7,1.9-1.4,2.7-2.3c2.6-2.7,3.8-6.1,3.8-10.2c0-3.8-1-7.3-3.1-10.4c-2.1-3.1-5-5.6-8.8-7.4c-3.8-1.8-8.2-2.7-13.2-2.7
	c-5,0-9.4,0.9-13.4,2.7c-3.9,1.8-7.1,4.3-9.4,7.5c-1.3,1.9-2.3,3.9-2.9,6.1c-0.4,1.6-0.7,3.2-0.7,5h14.7c0.1-1.8,0.6-3.5,1.7-4.8
	s2.4-2.4,4.2-3.2c1.7-0.8,3.6-1.1,5.7-1.1c2.1,0,3.9,0.4,5.4,1.2c1.6,0.8,2.8,1.9,3.6,3.3c0.9,1.4,1.3,3,1.3,4.8
	c0,1.9-0.5,3.6-1.5,5c-1,1.4-2.4,2.5-4.2,3.3c-1.8,0.8-3.8,1.2-6.1,1.2h-6.8v11.3h6.8c2.7,0,5.1,0.4,7.1,1.3c2,0.9,3.6,2,4.6,3.6
	c1.1,1.5,1.6,3.2,1.6,5.1c0,1.9-0.5,3.6-1.5,5.1c-1,1.5-2.4,2.6-4.2,3.4c-1.8,0.8-3.9,1.2-6.2,1.2c-2.2,0-4.3-0.4-6.1-1.1
	c-1.8-0.7-3.2-1.8-4.3-3.1c-1.1-1.3-1.6-2.9-1.7-4.7H69.2c0,1.8,0.3,3.4,0.7,5c0.6,2.2,1.6,4.3,3,6.2c2.4,3.2,5.6,5.8,9.8,7.6
	c4.1,1.8,8.9,2.7,14.2,2.7c5.4,0,10.3-0.9,14.5-2.8C115.5,115.4,118.8,112.8,121.2,109.6z"/>
</svg>
