<?xml version="1.0" encoding="utf-8"?>
<!-- Generator: Adobe Illustrator 25.4.1, SVG Export Plug-In . SVG Version: 6.00 Build 0)  -->
<svg version="1.1" id="Layer_1" xmlns="http://www.w3.org/2000/svg" xmlns:xlink="http://www.w3.org/1999/xlink" x="0px" y="0px"
	 viewBox="0 0 198 135" style="enable-background:new 0 0 198 135;" xml:space="preserve">
<style type="text/css">
	.st0{fill:#D4AF37;}
	.st1{fill:#FFFFFF;}
	.st2{fill-rule:evenodd;clip-rule:evenodd;fill:#B49364;}
</style>
<path class="st0" d="M198,37.4c0,5.6-4.7,10.2-10.2,10.2c-5.5,0-10.2-4.7-10.2-10.2c0-5.6,4.7-10.2,10.2-10.2S198,31.6,198,37.4z
	 M10.2,26.3C4.7,26.3,0,31,0,36.5s4.7,10.2,10.2,10.2c5.5,0,10.2-4.7,10.2-10.2C20.4,31,15.7,26.3,10.2,26.3z M98.3,0
	c-5.5,0-10.2,4.7-10.2,10.2c0,5.6,4.7,10.2,10.2,10.2c5.5,0,10.2-4.7,10.2-10.2C108.5,4.7,104.1,0,98.3,0z M34.7,121.6l3.8,13.4H156
	l4.7-13.4H34.7z M178.2,45.9c-9.3,8.5-24.8,19.6-40.2,19.6c-18.4,0-31.2-28.3-36.7-42.7c-0.9,0.3-2,0.3-2.9,0.3
	c-0.9,0-1.7,0-2.6-0.3c-5.2,14.3-19,42.7-39.1,42.7c-16.6,0-30.3-10.8-38.2-19c-1.5,1.2-2.9,1.8-4.7,2.3l18.1,62.5h132.4l19.2-61.9
	C181.4,48.8,179.6,47.6,178.2,45.9L178.2,45.9z"/>
<path class="st1" d="M110.5,46.3V119H95.2V60.9h-0.4L78.1,71.3V57.7l18-11.4H110.5z"/>
<path class="st2" d="M110.5,41.3c2.8,0,5,2.2,5,5V119c0,2.8-2.2,5-5,5H95.2c-2.8,0-5-2.2-5-5V69.6l-9.4,5.9c-1.5,1-3.5,1-5.1,0.1
	c-1.6-0.9-2.6-2.6-2.6-4.4V57.7c0-1.7,0.9-3.3,2.3-4.2l18-11.4c0.8-0.5,1.7-0.8,2.7-0.8H110.5z M94.7,60.9h0.4V119h15.4V46.3H96.1
	l-18,11.4v13.6L94.7,60.9z"/>
</svg>
