<?xml version="1.0" encoding="utf-8"?>
<!-- Generator: Adobe Illustrator 25.4.1, SVG Export Plug-In . SVG Version: 6.00 Build 0)  -->
<svg version="1.1" id="Layer_1" xmlns="http://www.w3.org/2000/svg" xmlns:xlink="http://www.w3.org/1999/xlink" x="0px" y="0px"
	 viewBox="0 0 198 135" style="enable-background:new 0 0 198 135;" xml:space="preserve">
<style type="text/css">
	.st0{fill:#C0C0C0;}
	.st1{fill:#FFFFFF;}
	.st2{fill-rule:evenodd;clip-rule:evenodd;fill:#A6A0BA;}
</style>
<path class="st0" d="M198,37.4c0,5.6-4.7,10.2-10.2,10.2c-5.5,0-10.2-4.7-10.2-10.2c0-5.6,4.7-10.2,10.2-10.2S198,31.6,198,37.4z
	 M10.2,26.3C4.7,26.3,0,31,0,36.5s4.7,10.2,10.2,10.2c5.5,0,10.2-4.7,10.2-10.2C20.4,31,15.7,26.3,10.2,26.3z M98.3,0
	c-5.5,0-10.2,4.7-10.2,10.2c0,5.6,4.7,10.2,10.2,10.2c5.5,0,10.2-4.7,10.2-10.2C108.5,4.7,104.1,0,98.3,0z M34.7,121.6l3.8,13.4H156
	l4.7-13.4H34.7z M178.2,45.9c-9.3,8.5-24.8,19.6-40.2,19.6c-18.4,0-31.2-28.3-36.7-42.7c-0.9,0.3-2,0.3-2.9,0.3
	c-0.9,0-1.7,0-2.6-0.3c-5.2,14.3-19,42.7-39.1,42.7c-16.6,0-30.3-10.8-38.2-19c-1.5,1.2-2.9,1.8-4.7,2.3l18.1,62.5h132.4l19.2-61.9
	C181.4,48.8,179.6,47.6,178.2,45.9L178.2,45.9z"/>
<path class="st1" d="M71.9,119v-11.1l25.9-24c2.2-2.1,4-4,5.5-5.8c1.5-1.7,2.7-3.4,3.4-5c0.8-1.7,1.2-3.4,1.2-5.4
	c0-2.1-0.5-4-1.5-5.5c-1-1.6-2.3-2.8-4-3.6c-1.7-0.9-3.6-1.3-5.7-1.3c-2.2,0-4.2,0.4-5.8,1.3c-1.7,0.9-2.9,2.2-3.8,3.9
	c-0.9,1.7-1.3,3.7-1.3,6H71.2c0-4.8,1.1-8.9,3.2-12.4c2.2-3.5,5.2-6.2,9.1-8.1c3.9-1.9,8.4-2.9,13.4-2.9c5.2,0,9.7,0.9,13.6,2.8
	c3.9,1.8,6.9,4.4,9.1,7.6c2.2,3.2,3.2,7,3.2,11.2c0,2.7-0.5,5.5-1.6,8.1c-1.1,2.7-3,5.6-5.7,8.9c-2.7,3.2-6.6,7.1-11.6,11.7
	l-10.6,10.4v0.5h30.5V119H71.9z"/>
<path class="st2" d="M71.9,124c-2.8,0-5-2.2-5-5v-11.1c0-1.4,0.6-2.7,1.6-3.7l25.8-23.9c2.1-2,3.8-3.9,5.2-5.4l0,0
	c1.3-1.4,2.1-2.7,2.7-3.8c0.4-1,0.7-2,0.7-3.2c0-1.4-0.3-2.2-0.7-2.8l0,0c-0.5-0.8-1.1-1.3-1.9-1.7c0,0,0,0-0.1,0
	c-0.9-0.5-2-0.7-3.5-0.7c-1.5,0-2.6,0.3-3.4,0.7c-0.8,0.4-1.4,1-1.8,1.8c-0.4,0.8-0.8,2-0.8,3.6c0,2.8-2.2,5-5,5H71.2
	c-2.8,0-5-2.2-5-5c0-5.5,1.3-10.6,4-15c2.7-4.3,6.4-7.7,11.1-10c4.7-2.3,9.9-3.4,15.6-3.4c5.8,0,11.1,1,15.7,3.3
	c4.6,2.2,8.4,5.3,11.1,9.4c2.7,4.1,4.1,8.8,4.1,13.9c0,3.4-0.7,6.8-2,10c-1.3,3.3-3.6,6.8-6.5,10.3l0,0c-2.9,3.5-7,7.5-12,12.1
	l-2.3,2.3h18.8c2.8,0,5,2.2,5,5V119c0,2.8-2.2,5-5,5H71.9z M93.2,106.4v-0.5l10.6-10.4c5-4.5,8.9-8.4,11.6-11.7
	c2.7-3.3,4.7-6.2,5.7-8.9c1.1-2.7,1.6-5.4,1.6-8.1c0-4.2-1.1-7.9-3.2-11.2c-2.2-3.2-5.2-5.8-9.1-7.6c-3.9-1.8-8.4-2.8-13.6-2.8
	c-5.1,0-9.5,1-13.4,2.9c-3.9,1.9-6.9,4.6-9.1,8.1c-1.4,2.2-2.3,4.7-2.8,7.4c-0.3,1.6-0.4,3.2-0.4,5h14.6c0-2.3,0.4-4.3,1.3-6
	c0.9-1.7,2.2-3,3.8-3.9c1.7-0.9,3.6-1.3,5.8-1.3c2.1,0,4,0.4,5.7,1.3c1.7,0.8,3,2,4,3.6c1,1.5,1.5,3.4,1.5,5.5
	c0,1.9-0.4,3.7-1.2,5.4c-0.8,1.6-1.9,3.3-3.4,5c-1.5,1.7-3.3,3.6-5.5,5.8l-25.9,24V119h51.8v-12.6H93.2z"/>
</svg>
