<?xml version="1.0" encoding="utf-8"?>
<!-- Generator: Adobe Illustrator 25.4.1, SVG Export Plug-In . SVG Version: 6.00 Build 0)  -->
<svg version="1.1" id="Layer_1" xmlns="http://www.w3.org/2000/svg" xmlns:xlink="http://www.w3.org/1999/xlink" x="0px" y="0px"
	 viewBox="0 0 29 80" style="enable-background:new 0 0 29 80;" xml:space="preserve">
<style type="text/css">
	.st0{fill:#FFFFFF;}
	.st1{fill:#EC672C;}
</style>
<g id="right-chevron">
	<path id="Path" class="st0" d="M10.8,3.7l16.6,33.2c0.8,1.6,0.8,3.4,0,5L10.8,75.1c-0.9,1.8-2.7,3-4.7,3.1c-2,0.1-3.9-0.8-5-2.5
		L1,75.5c-1-1.6-1-3.7-0.2-5.4l15.4-30.7L0.8,8.7C-0.5,6,0.5,2.7,3.1,1.3l0.2-0.1C6.1-0.2,9.4,0.9,10.8,3.7z"/>
	<path id="Path_00000039107959853986610570000010989623648627112334_" class="st1" d="M4.6,3.7C3.2,4.4,2.7,6,3.4,7.4l16,32l-16,32
		c-0.5,0.9-0.4,1.9,0.1,2.8S5,75.5,6,75.4c1-0.1,1.9-0.6,2.3-1.5l16.6-33.2c0.4-0.8,0.4-1.7,0-2.5L8.3,4.9C7.6,3.6,6,3,4.6,3.7z"/>
</g>
</svg>
