<?xml version="1.0" encoding="utf-8"?>
<!-- Generator: Adobe Illustrator 25.4.1, SVG Export Plug-In . SVG Version: 6.00 Build 0)  -->
<svg version="1.1" id="Layer_1" xmlns="http://www.w3.org/2000/svg" xmlns:xlink="http://www.w3.org/1999/xlink" x="0px" y="0px"
	 viewBox="0 0 29 80" style="enable-background:new 0 0 29 80;" xml:space="preserve">
<style type="text/css">
	.st0{fill:#FFFFFF;}
	.st1{fill:#EC672C;}
</style>
<g id="left-chevron">
	<path id="Path" class="st0" d="M17.4,3.7L0.8,36.9c-0.8,1.6-0.8,3.4,0,5l16.6,33.2c0.9,1.8,2.7,3,4.7,3.1c2,0.1,3.9-0.8,5-2.5
		l0.1-0.2c1-1.6,1-3.7,0.2-5.4L12.1,39.4L27.4,8.7c1.3-2.7,0.3-5.9-2.3-7.4l-0.2-0.1C22.2-0.2,18.8,0.9,17.4,3.7z"/>
	<path id="Path_00000042702978015464320890000000209284376883340969_" class="st1" d="M23.7,3.7C25,4.4,25.6,6,24.9,7.4l-16,32
		l16,32c0.5,0.9,0.4,1.9-0.1,2.8s-1.5,1.3-2.5,1.2c-1-0.1-1.9-0.6-2.3-1.5L3.3,40.6c-0.4-0.8-0.4-1.7,0-2.5L20,4.9
		C20.6,3.6,22.3,3,23.7,3.7z"/>
</g>
</svg>
