<?xml version="1.0" encoding="utf-8"?>
<!-- Generator: Adobe Illustrator 25.4.1, SVG Export Plug-In . SVG Version: 6.00 Build 0)  -->
<svg version="1.1" id="Layer_1" xmlns="http://www.w3.org/2000/svg" xmlns:xlink="http://www.w3.org/1999/xlink" x="0px" y="0px"
	 viewBox="0 0 160 40" style="enable-background:new 0 0 160 40;" xml:space="preserve">
<style type="text/css">
	.st0{clip-path:url(#SVGID_00000150782941607719014590000008186058230574032550_);}
	.st1{fill-rule:evenodd;clip-rule:evenodd;fill:#EC672C;}
	.st2{fill-rule:evenodd;clip-rule:evenodd;fill:#FFFFFF;filter:url(#Adobe_OpacityMaskFilter);}
	.st3{mask:url(#path-1-inside-1_203_201_00000174579656837838789390000000522414794261105537_);fill:#FFFFFF;}
</style>
<g>
	<defs>
		<rect id="SVGID_1_" width="160" height="40"/>
	</defs>
	<clipPath id="SVGID_00000005240946608916806870000003962076993485663152_">
		<use xlink:href="#SVGID_1_"  style="overflow:visible;"/>
	</clipPath>
	<g style="clip-path:url(#SVGID_00000005240946608916806870000003962076993485663152_);">
		<path class="st1" d="M7,0C2.5,0-0.8,4.2,0.2,8.6l3.7,16.1c0.7,3.2,3.6,5.4,6.8,5.4h11.1V40l27.5-9.9h99.9c3.3,0,6.1-2.2,6.8-5.4
			l3.7-16.1c1-4.4-2.3-8.6-6.8-8.6H7z"/>
		<defs>
			<filter id="Adobe_OpacityMaskFilter" filterUnits="userSpaceOnUse" x="-2" y="-2" width="164" height="44.8">
				<feColorMatrix  type="matrix" values="1 0 0 0 0  0 1 0 0 0  0 0 1 0 0  0 0 0 1 0"/>
			</filter>
		</defs>
		
			<mask maskUnits="userSpaceOnUse" x="-2" y="-2" width="164" height="44.8" id="path-1-inside-1_203_201_00000174579656837838789390000000522414794261105537_">
			<path class="st2" d="M7,0C2.5,0-0.8,4.2,0.2,8.6l3.7,16.1c0.7,3.2,3.6,5.4,6.8,5.4h11.1V40l27.5-9.9h99.9c3.3,0,6.1-2.2,6.8-5.4
				l3.7-16.1c1-4.4-2.3-8.6-6.8-8.6H7z"/>
		</mask>
		<path class="st3" d="M0.2,8.6L-1.8,9l0,0L0.2,8.6z M3.9,24.7l1.9-0.5l0,0L3.9,24.7z M21.9,30.1h2v-2h-2V30.1z M21.9,40h-2v2.8
			l2.7-1L21.9,40z M49.4,30.1v-2H49l-0.3,0.1L49.4,30.1z M156.1,24.7l-1.9-0.5l0,0L156.1,24.7z M159.8,8.6l-1.9-0.5l0,0L159.8,8.6z
			 M2.1,8.1C1.4,5,3.8,2,7,2v-4C1.2-2-3.1,3.4-1.8,9L2.1,8.1z M5.9,24.2L2.1,8.1L-1.8,9L2,25.1L5.9,24.2z M10.7,28.1
			c-2.3,0-4.3-1.6-4.9-3.9L2,25.1c0.9,4.1,4.6,7,8.8,7V28.1z M21.9,28.1H10.7v4h11.1V28.1z M23.9,40v-9.9h-4V40H23.9z M48.7,28.2
			l-27.5,9.9l1.4,3.8L50,32L48.7,28.2z M149.3,28.1H49.4v4h99.9V28.1z M154.1,24.2c-0.5,2.3-2.5,3.9-4.9,3.9v4c4.2,0,7.8-2.9,8.8-7
			L154.1,24.2z M157.9,8.1l-3.7,16.1l3.9,0.9L161.8,9L157.9,8.1z M153,2c3.2,0,5.6,3,4.9,6.1l3.9,0.9c1.3-5.6-3-11-8.8-11V2z M7,2
			h146v-4H7V2z"/>
	</g>
</g>
</svg>
