<?xml version="1.0" encoding="utf-8"?>
<!-- Generator: Adobe Illustrator 25.4.1, SVG Export Plug-In . SVG Version: 6.00 Build 0)  -->
<svg version="1.1" id="Layer_1" xmlns="http://www.w3.org/2000/svg" xmlns:xlink="http://www.w3.org/1999/xlink" x="0px" y="0px"
	 viewBox="0 0 3327 2049" style="enable-background:new 0 0 3327 2049;" xml:space="preserve">
<style type="text/css">
	.st0{clip-path:url(#SVGID_00000008846741219230473700000016309655408486049665_);}
	.st1{fill:#FFFFFF;}
	.st2{fill:#F2DFFD;}
	.st3{fill:#D0EEFD;}
	.st4{fill:#F7BD92;}
</style>
<g>
	<defs>
		<rect id="SVGID_1_" width="3327" height="2049"/>
	</defs>
	<clipPath id="SVGID_00000111895741355461224770000008902499275154966436_">
		<use xlink:href="#SVGID_1_"  style="overflow:visible;"/>
	</clipPath>
	<g style="clip-path:url(#SVGID_00000111895741355461224770000008902499275154966436_);">
		<rect class="st1" width="3327" height="2049"/>
		<g>
			
				<rect x="2464.8" y="-2044.4" transform="matrix(0.5878 -0.809 0.809 0.5878 1367.5668 2009.26)" class="st2" width="381.4" height="3414"/>
			
				<rect x="2309.2" y="-1742.7" transform="matrix(0.5878 -0.809 0.809 0.5878 1033.1605 1956.2927)" class="st2" width="254.2" height="3414"/>
			
				<rect x="2314.5" y="-1615.9" transform="matrix(0.5878 -0.809 0.809 0.5878 892.5562 1934.0228)" class="st3" width="59.3" height="3414"/>
			<path class="st3" d="M2717.6,433.2l-28.4-54.7l1018.5,740l-16.2,22.3L2717.6,433.2z"/>
			
				<rect x="2229.8" y="-1528.5" transform="matrix(0.5878 -0.809 0.809 0.5878 795.6547 1918.6753)" class="st3" width="101.7" height="3414"/>
			
				<rect x="1999.5" y="-1172.1" transform="matrix(0.5878 -0.809 0.809 0.5878 400.5954 1856.1039)" class="st4" width="44.5" height="3414"/>
			
				<rect x="1247.7" y="-127" transform="matrix(0.5878 -0.809 0.809 0.5878 -757.8229 1672.6285)" class="st3" width="29.5" height="3414"/>
			
				<rect x="462.1" y="608.6" transform="matrix(0.5878 -0.809 0.809 0.5878 -1573.3362 1543.4651)" class="st3" width="531.7" height="3414"/>
			
				<rect x="919.4" y="281.8" transform="matrix(0.5878 -0.809 0.809 0.5878 -1210.9821 1600.8546)" class="st2" width="92.1" height="3414"/>
			<path class="st2" d="M637.9,1921.6l-210.5-266.8l1892,1374.6l-54.2,74.6L637.9,1921.6z"/>
			
				<rect x="1060.3" y="109.1" transform="matrix(0.5878 -0.809 0.809 0.5878 -1019.6015 1631.1671)" class="st3" width="61.2" height="3414"/>
			<path class="st3" d="M2530.3,598.3l-5.6-179.5l1107,804.3l-83.4,114.8L2530.3,598.3z"/>
		</g>
	</g>
</g>
</svg>
