<?xml version="1.0" encoding="utf-8"?>
<!-- Generator: Adobe Illustrator 25.4.1, SVG Export Plug-In . SVG Version: 6.00 Build 0)  -->
<svg version="1.1"
	 id="svg268" xmlns:cc="http://creativecommons.org/ns#" xmlns:dc="http://purl.org/dc/elements/1.1/" xmlns:inkscape="http://www.inkscape.org/namespaces/inkscape" xmlns:rdf="http://www.w3.org/1999/02/22-rdf-syntax-ns#" xmlns:sodipodi="http://sodipodi.sourceforge.net/DTD/sodipodi-0.dtd" xmlns:svg="http://www.w3.org/2000/svg"
	 xmlns="http://www.w3.org/2000/svg" xmlns:xlink="http://www.w3.org/1999/xlink" x="0px" y="0px" viewBox="0 0 471 406"
	 style="enable-background:new 0 0 471 406;" xml:space="preserve">
<sodipodi:namedview  bordercolor="#666666" borderopacity="1" gridtolerance="10" guidetolerance="10" id="namedview270" inkscape:bbox-nodes="true" inkscape:bbox-paths="true" inkscape:current-layer="svg268" inkscape:cx="84.908259" inkscape:cy="450.85614" inkscape:pageopacity="0" inkscape:pageshadow="2" inkscape:snap-bbox="true" inkscape:snap-bbox-edge-midpoints="false" inkscape:snap-bbox-midpoints="false" inkscape:window-height="1266" inkscape:window-maximized="0" inkscape:window-width="1747" inkscape:window-x="0" inkscape:window-y="25" inkscape:zoom="1.0352428" objecttolerance="10" pagecolor="#ffffff" showgrid="false" showguides="true">
	</sodipodi:namedview>
<image style="overflow:visible;" width="182" height="223" xlink:href="../../../../../../../../Documents/Personal Dev/Shef Labs/Logos &amp; Brandings/New Logo/Logo/fav.png"  transform="matrix(0.4877 0 0 0.4877 -79.8348 -18.9119)">
</image>
<image style="overflow:visible;" width="182" height="223" xlink:href="../../../../../../../../Documents/Personal Dev/Shef Labs/Logos &amp; Brandings/New Logo/Logo/fav.png"  transform="matrix(0.4877 0 0 0.4877 -181.028 97.9062)">
</image>
<image style="overflow:visible;" width="182" height="223" xlink:href="../../../../../../../../Documents/Personal Dev/Shef Labs/Logos &amp; Brandings/New Logo/Logo/fav.png"  transform="matrix(0.4877 0 0 0.4877 -308.2129 197.2382)">
</image>
<image style="overflow:visible;" width="182" height="223" xlink:href="../../../../../../../../Documents/Personal Dev/Shef Labs/Logos &amp; Brandings/New Logo/Logo/fav.png"  transform="matrix(0.4877 0 0 0.4877 -440.5034 273.3322)">
</image>
<image style="overflow:visible;" width="182" height="223" xlink:href="../../../../../../../../Documents/Personal Dev/Shef Labs/Logos &amp; Brandings/New Logo/Logo/fav.png"  transform="matrix(0.4877 0 0 0.4877 -434.7625 676.2421)">
</image>
<image style="overflow:visible;" width="182" height="223" xlink:href="../../../../../../../../Documents/Personal Dev/Shef Labs/Logos &amp; Brandings/New Logo/Logo/fav.png"  transform="matrix(0.4877 0 0 0.4877 -185.6977 488.2514)">
</image>
<image style="overflow:visible;" width="182" height="223" xlink:href="../../../../../../../../Documents/Personal Dev/Shef Labs/Logos &amp; Brandings/New Logo/Logo/fav.png"  transform="matrix(0.4877 0 0 0.4877 -78.5357 387.113)">
</image>
<image style="overflow:visible;" width="182" height="223" xlink:href="../../../../../../../../Documents/Personal Dev/Shef Labs/Logos &amp; Brandings/New Logo/Logo/fav.png"  transform="matrix(0.4877 0 0 0.4877 25.0634 283.8359)">
</image>
<image style="overflow:visible;" width="182" height="223" xlink:href="../../../../../../../../Documents/Personal Dev/Shef Labs/Logos &amp; Brandings/New Logo/Logo/fav.png"  transform="matrix(0.4877 0 0 0.4877 156.4408 190.986)">
</image>
<image style="overflow:visible;" width="182" height="223" xlink:href="../../../../../../../../Documents/Personal Dev/Shef Labs/Logos &amp; Brandings/New Logo/Logo/fav.png"  transform="matrix(0.4877 0 0 0.4877 284.9167 88.4786)">
</image>
<image style="overflow:visible;" width="182" height="223" xlink:href="../../../../../../../../Documents/Personal Dev/Shef Labs/Logos &amp; Brandings/New Logo/Logo/fav.png"  transform="matrix(0.4877 0 0 0.4877 384.2923 -18.9119)">
</image>
<image style="overflow:visible;" width="182" height="223" xlink:href="../../../../../../../../Documents/Personal Dev/Shef Labs/Logos &amp; Brandings/New Logo/Logo/fav.png"  transform="matrix(0.4877 0 0 0.4877 392.0783 392.5955)">
</image>
<image style="overflow:visible;" width="182" height="223" xlink:href="../../../../../../../../Documents/Personal Dev/Shef Labs/Logos &amp; Brandings/New Logo/Logo/fav.png"  transform="matrix(0.4877 0 0 0.4877 291.3913 485.2229)">
</image>
<image style="overflow:visible;" width="182" height="223" xlink:href="../../../../../../../../Documents/Personal Dev/Shef Labs/Logos &amp; Brandings/New Logo/Logo/fav.png"  transform="matrix(0.4877 0 0 0.4877 168.1575 592.0026)">
</image>
<image style="overflow:visible;" width="182" height="223" xlink:href="../../../../../../../../Documents/Personal Dev/Shef Labs/Logos &amp; Brandings/New Logo/Logo/fav.png"  transform="matrix(0.4877 0 0 0.4877 25.0634 681.1655)">
</image>
<image style="overflow:visible;" width="182" height="223" xlink:href="../../../../../../../../Documents/Personal Dev/Shef Labs/Logos &amp; Brandings/New Logo/Logo/fav.png"  transform="matrix(0.4877 0 0 0.4877 -308.2129 592.0026)">
</image>
</svg>
