<?xml version="1.0" encoding="utf-8"?>
<!-- Generator: Adobe Illustrator 25.4.1, SVG Export Plug-In . SVG Version: 6.00 Build 0)  -->
<svg version="1.1" id="Layer_1" xmlns="http://www.w3.org/2000/svg" xmlns:xlink="http://www.w3.org/1999/xlink" x="0px" y="0px"
	 viewBox="0 0 155 79" style="enable-background:new 0 0 155 79;" xml:space="preserve">
<style type="text/css">
	.st0{clip-path:url(#SVGID_00000163060691361368581520000000528992338056419988_);}
	.st1{fill:#EC672C;}
</style>
<g>
	<defs>
		<rect id="SVGID_1_" width="155" height="79"/>
	</defs>
	<clipPath id="SVGID_00000093161215735793316630000001143043744767531923_">
		<use xlink:href="#SVGID_1_"  style="overflow:visible;"/>
	</clipPath>
	<g style="clip-path:url(#SVGID_00000093161215735793316630000001143043744767531923_);">
		<circle class="st1" cx="3.2" cy="6.1" r="8.9"/>
		<circle class="st1" cx="25.8" cy="6.1" r="8"/>
		<circle class="st1" cx="48.7" cy="6.1" r="7.2"/>
		<circle class="st1" cx="71.7" cy="6.1" r="6.4"/>
		<circle class="st1" cx="95.1" cy="6.1" r="5.7"/>
		<circle class="st1" cx="118.3" cy="6.1" r="4.8"/>
		<circle class="st1" cx="141.2" cy="6.1" r="3.1"/>
		<circle class="st1" cx="14.8" cy="17.1" r="8"/>
		<circle class="st1" cx="-7.3" cy="17.1" r="9"/>
		<circle class="st1" cx="37.4" cy="17.1" r="7.7"/>
		<circle class="st1" cx="60.3" cy="17.1" r="6.4"/>
		<circle class="st1" cx="83.3" cy="17.1" r="5.7"/>
		<circle class="st1" cx="106.7" cy="17.1" r="4.8"/>
		<circle class="st1" cx="129.9" cy="17.1" r="3.3"/>
		<circle class="st1" cx="152.7" cy="17.1" r="1.8"/>
		<circle class="st1" cx="14.8" cy="-5.9" r="8"/>
		<circle class="st1" cx="-7.3" cy="-5.9" r="9"/>
		<circle class="st1" cx="37.4" cy="-5.9" r="7.7"/>
		<circle class="st1" cx="60.3" cy="-5.9" r="6.4"/>
		<circle class="st1" cx="3.2" cy="28.7" r="8.9"/>
		<circle class="st1" cx="25.8" cy="28.7" r="8"/>
		<circle class="st1" cx="48.7" cy="28.7" r="7.2"/>
		<circle class="st1" cx="71.7" cy="28.7" r="6.4"/>
		<circle class="st1" cx="95.1" cy="28.7" r="5.7"/>
		<circle class="st1" cx="118.3" cy="28.7" r="4.8"/>
		<circle class="st1" cx="141.2" cy="28.7" r="3.1"/>
		<circle class="st1" cx="14.8" cy="39.7" r="8"/>
		<circle class="st1" cx="-7.3" cy="39.7" r="9"/>
		<circle class="st1" cx="37.4" cy="39.7" r="7.7"/>
		<circle class="st1" cx="60.3" cy="39.7" r="6.4"/>
		<circle class="st1" cx="83.3" cy="39.7" r="5.7"/>
		<circle class="st1" cx="106.7" cy="39.7" r="4.8"/>
		<circle class="st1" cx="129.9" cy="39.7" r="3.3"/>
		<circle class="st1" cx="152.7" cy="39.7" r="1.8"/>
		<circle class="st1" cx="3.2" cy="51.3" r="8.9"/>
		<circle class="st1" cx="25.8" cy="51.3" r="8"/>
		<circle class="st1" cx="48.7" cy="51.3" r="7.2"/>
		<circle class="st1" cx="71.7" cy="51.3" r="6.4"/>
		<circle class="st1" cx="95.1" cy="51.3" r="5.7"/>
		<circle class="st1" cx="118.3" cy="51.3" r="4.8"/>
		<circle class="st1" cx="141.2" cy="51.3" r="3.1"/>
		<circle class="st1" cx="14.8" cy="62.3" r="8"/>
		<circle class="st1" cx="-7.3" cy="62.3" r="9"/>
		<circle class="st1" cx="37.4" cy="62.3" r="7.7"/>
		<circle class="st1" cx="60.3" cy="62.3" r="6.4"/>
		<circle class="st1" cx="83.3" cy="62.3" r="5.7"/>
		<circle class="st1" cx="106.7" cy="62.3" r="4.8"/>
		<circle class="st1" cx="129.9" cy="62.3" r="3.3"/>
		<circle class="st1" cx="152.7" cy="62.3" r="1.8"/>
		<circle class="st1" cx="3.2" cy="73.9" r="8.9"/>
		<circle class="st1" cx="25.8" cy="73.9" r="8"/>
		<circle class="st1" cx="48.7" cy="73.9" r="7.2"/>
		<circle class="st1" cx="71.7" cy="73.9" r="6.4"/>
		<circle class="st1" cx="95.1" cy="73.9" r="5.7"/>
		<circle class="st1" cx="118.3" cy="73.9" r="4.8"/>
		<circle class="st1" cx="141.2" cy="73.9" r="3.1"/>
		<circle class="st1" cx="14.8" cy="84.9" r="8"/>
		<circle class="st1" cx="-7.3" cy="84.9" r="9"/>
		<circle class="st1" cx="37.4" cy="84.9" r="7.7"/>
		<circle class="st1" cx="60.3" cy="84.9" r="6.4"/>
	</g>
</g>
</svg>
